<?xml version="1.0" encoding="utf-8"?>
<!-- Generator: Adobe Illustrator 24.0.0, SVG Export Plug-In . SVG Version: 6.00 Build 0)  -->
<svg version="1.1" id="Capa_1" xmlns="http://www.w3.org/2000/svg" xmlns:xlink="http://www.w3.org/1999/xlink" x="0px" y="0px"
	 viewBox="0 0 512 512" style="enable-background:new 0 0 512 512;" xml:space="preserve">
<style type="text/css">
	.st0{opacity:0.9;fill:#FF0000;}
	.st1{opacity:0.9;fill:#FFFFFF;}
	.st2{font-family:'Arial-BoldMT';}
	.st3{font-size:94.7372px;}
	.st4{letter-spacing:8.9;}
</style>
<g>
	<g>
		<path d="M467,28.4H45c-24.8,0-45,20.2-45,45v278.3c0,24.8,20.2,45,45,45h151.5v57h-22.6c-8.3,0-15,6.7-15,15s6.7,15,15,15h164.2
			c8.3,0,15-6.7,15-15s-6.7-15-15-15h-22.6v-57H467c24.8,0,45-20.2,45-45V73.4C512,48.5,491.8,28.4,467,28.4z M285.5,453.6h-59v-57
			h59V453.6z M482,351.6c0,8.3-6.7,15-15,15H45c-8.3,0-15-6.7-15-15v-22.8h452V351.6z M482,298.8H30V73.4c0-8.3,6.7-15,15-15h422
			c8.3,0,15,6.7,15,15V298.8z"/>
	</g>
</g>
<g>
	<g>
		<path d="M182.3,216.9l-40.6-27.7l40.6-27.7c6.8-4.7,8.6-14,3.9-20.8c-4.7-6.8-14-8.6-20.8-3.9l-58.8,40.1
			c-4.1,2.8-6.5,7.4-6.5,12.4s2.4,9.6,6.5,12.4l58.8,40.1c2.6,1.8,5.5,2.6,8.4,2.6c4.8,0,9.5-2.3,12.4-6.5
			C190.9,230.9,189.1,221.6,182.3,216.9z"/>
	</g>
</g>
<g>
	<g>
		<path d="M405.4,176.8l-58.8-40.1c-6.8-4.7-16.2-2.9-20.8,3.9c-4.7,6.8-2.9,16.2,3.9,20.8l40.6,27.7l-40.6,27.7
			c-6.8,4.7-8.6,14-3.9,20.8c2.9,4.3,7.6,6.5,12.4,6.5c2.9,0,5.9-0.8,8.4-2.6l58.8-40.1c4.1-2.8,6.5-7.4,6.5-12.4
			S409.5,179.6,405.4,176.8z"/>
	</g>
</g>
<g>
	<g>
		<path d="M293.5,122.5c-7.2-4.1-16.4-1.5-20.4,5.7l-60.2,107.1c-4.1,7.2-1.5,16.4,5.7,20.4c2.3,1.3,4.8,1.9,7.3,1.9
			c5.2,0,10.3-2.8,13.1-7.7l60.2-107.1C303.2,135.7,300.7,126.6,293.5,122.5z"/>
	</g>
</g>
<rect x="30" y="138.1" class="st0" width="452" height="103"/>
<text transform="matrix(1.006 0 0 1 91.0392 222.9867)" class="st1 st2 st3 st4">PANIC</text>
</svg>
